<svg xmlns:svg="http://www.w3.org/2000/svg" xmlns="http://www.w3.org/2000/svg" width="750" height="562.5" id="svg2"
   version="1.0">
   <defs id="defs4" />
   <path d="M0 0L375 562.5M375 0L0 562.5" stroke="#da121a" stroke-width="40" />
   <path d="M0 0L25 0L0 25Z" fill="#da121a" />
   <path d="M375 0L375 25L350 0Z" fill="#da121a" />
   <path d="M0 562.5L25 562.5L0 537.5Z" fill="#da121a" />
   <path d="M375 562.5L375 537.5L350 562.5Z" fill="#da121a" />
   <rect x="375" y="0" width="375" height="500" style="fill:#ffffff;" />
   <rect x="375" y="0" width="375" height="62.5" style="fill:#fcdd09;" />
   <rect x="375" y="62.5" width="375" height="62.5" style="fill:#da121a;" />
   <rect x="375" y="125" width="375" height="62.5" style="fill:#fcdd09;" />
   <rect x="375" y="187.5" width="375" height="62.5" style="fill:#da121a;" />
   <rect x="375" y="250" width="375" height="62.5" style="fill:#fcdd09;" />
   <rect x="375" y="312.5" width="375" height="62.5" style="fill:#da121a;" />
   <rect x="375" y="375" width="375" height="62.5" style="fill:#fcdd09;" />
   <rect x="375" y="437.5" width="375" height="62.5" style="fill:#da121a;" />
   <rect x="375" y="500" width="375" height="62.5" style="fill:#fcdd09;" />
</svg>